<?xml version="1.0" encoding="UTF-8"?>
<!-- Created with Inkscape (http://www.inkscape.org/) -->
<svg width="1200" height="1200" version="1.1" viewBox="0 0 2e3 2821" xmlns="http://www.w3.org/2000/svg" xmlns:cc="http://creativecommons.org/ns#" xmlns:dc="http://purl.org/dc/elements/1.1/" xmlns:rdf="http://www.w3.org/1999/02/22-rdf-syntax-ns#" xmlns:xlink="http://www.w3.org/1999/xlink">
 <metadata>
  <rdf:RDF>
   <cc:Work rdf:about="">
    <dc:format>image/svg+xml</dc:format>
    <dc:type rdf:resource="http://purl.org/dc/dcmitype/StillImage"/>
    <dc:title/>
   </cc:Work>
  </rdf:RDF>
 </metadata>
 <image width="2e3" height="2821" preserveAspectRatio="none" xlink:href="C:\Users\mikeg\Downloads\CSS3_logo_and_wordmark.svg.png"/>
 <path d="m0 1410.5v-1410.5h2e3v2821h-2e3z" fill="#fefefe"/>
 <path d="m993 2820c-1.375-0.4673-3.8629-0.8945-5.5287-0.9493-3.5986-0.1185-805.32-222.55-806.53-223.76-1.0274-1.0342-178.95-1995.9-178.94-2006.3 0.0031562-4.125-0.52473-13.499-1.1731-20.831-1.0053-11.369-0.96871-13.464 0.24856-14.235 0.84826-0.537 406.34-0.80828 999.43-0.66864l998 0.23498-0.3399 14c-0.4176 17.198-179.59 2026.3-180.82 2027.6-1.1797 1.1797-803.62 223.54-809.34 224.28-2.475 0.317-6.3 0.7988-8.5 1.0707s-5.125 0.112-6.5-0.3554zm261.03-504.55c139.9-38.774 254.68-70.837 255.07-71.25 0.385-0.4135 14.941-160.28 32.347-355.25 17.406-194.98 42.877-480.25 56.602-633.94 13.725-153.69 24.954-280.03 24.954-280.75 0-1.0752-55.593-1.2633-312.25-1.0565l-312.25 0.25158v246l353 1 0.28 4.5c0.4356 6.9986-21.67 252.29-22.842 253.46-0.7067 0.7068-53.666 1.1206-165.99 1.2968l-164.95 0.2588v245.98h153.88c133.84 0 154.04 0.1905 155.09 1.4632 1.7069 2.0566-27.043 324.09-29.102 325.99-0.752 0.6915-62.768 17.802-137.81 38.024-75.046 20.222-137.71 37.206-139.25 37.744l-2.803 0.9772v127.24c0 69.98 0.3 127.54 0.66667 127.9 0.36666 0.3667 0.74055 0.6667 0.83085 0.6667s114.63-31.724 254.53-70.498zm-420.83-1928.7c-1.7325-1.7325-1.7325-115.87 0-117.6 0.9149-0.9149 21.822-1.2 88-1.2h86.8v-18h-86.8c-66.178 0-87.085-0.2851-88-1.2-0.92026-0.92026-1.2-29.727-1.2-123.57 0-104.72 0.20604-122.58 1.4286-123.8 2.1593-2.1593 301.99-2.1508 304.15 0.00864 1.2208 1.2208 1.3982 9.6147 1.1785 55.75l-0.2586 54.313-175.5 0.51092v17.989h86.8c66.178 0 87.085 0.2851 88 1.2 1.7431 1.743 1.7431 253.86 0 255.6-1.7445 1.7445-302.86 1.7445-304.6 0zm364.04 0.37068c-0.9923-0.62998-1.2035-13.248-1-59.735l0.2581-58.936 175.5-0.51092v-17.978l-175.5-0.51092-0.2742-122.5c-0.1508-67.375-0.03-123.51 0.2691-124.75l0.5432-2.25h151.55c130.01 0 151.76 0.20304 152.98 1.4286 2.0655 2.0655 2.1455 107.73 0.083 109.44-0.963 0.79923-26.063 1.1896-88.25 1.3724l-86.904 0.25555-0.2889 8.75-0.289 8.75h87.504c85.489 0 87.528 0.0445 88.539 1.9343 0.6978 1.3039 1.0352 42.835 1.0352 127.43 0 112.75-0.1596 125.65-1.5714 127.07-1.4148 1.4148-16.59 1.5699-152.25 1.5561-82.873-8e-3 -151.24-0.37473-151.94-0.81401zm-728.04-6.3675c-0.92907-0.92907-1.2032-44.119-1.2032-189.57 0-161.92 0.20059-188.57 1.4286-189.8 1.2255-1.2255 22.957-1.4286 152.89-1.4286 137.19 0 151.52 0.14904 152.07 1.5818 0.33385 0.86998 0.60699 29.622 0.60699 63.893 0 55.897-0.16282 62.374-1.5818 62.918-0.86998 0.33385-40.47 0.60699-88 0.60699h-86.418v122l86.75 0.0153c47.712 8e-3 87.316 0.37454 88.007 0.8136 0.99301 0.63043 1.2033 14.348 1 65.235l-0.25741 64.436-152.05 0.25319c-117.43 0.19555-152.32-0.0207-153.25-0.95z" fill="#e9e9e9"/>
 <path d="m992.5 2820c-1.65-0.4938-184.35-51.161-406-112.59-221.65-61.432-403.55-112.19-404.22-112.81-0.83463-0.7595-29.463-318.14-90.66-1005.1-49.192-552.2-89.718-1008.3-90.057-1013.5s-0.89134-12.312-1.2278-15.75l-0.61174-6.25h1998.9l-0.4484 8.25c-1.2775 23.509-181.09 2031-182 2031.9-0.9406 0.9406-798.15 222.5-809.23 224.9-7.481 1.6203-11.349 1.8667-14.5 0.9238zm262.29-503.58c140.09-38.818 255-70.88 255.36-71.25 0.3571-0.3696 15.112-162.67 32.789-360.67 17.677-198 43.147-483.27 56.601-633.94 13.454-150.67 24.461-274.98 24.461-276.25v-2.3088h-624.94c-343.72 0-625.15 0.3402-625.41 0.75599-0.70064 1.1337 21.721 245.55 22.658 246.99 0.64534 0.9971 97.202 1.25 477.28 1.25 448.66 0 476.51 0.1 477.13 1.7104 0.8006 2.0862-21.42 253.39-22.5 254.47-0.4219 0.4219-205.19 1.0781-455.04 1.4582-249.85 0.3801-454.42 0.9542-454.61 1.2758-0.40441 0.6965 21.301 244.02 21.929 245.83 0.34594 0.9974 87.713 1.25 432.34 1.25 364.09 0 432.09 0.2147 433.04 1.3674 1.6307 1.965-27.048 322.25-29.024 324.13-1.6361 1.561-276.27 75.805-279.87 75.659-4.2513-0.1728-276.39-74.109-277.6-75.422-0.70694-0.7628-4.478-38.756-9.8462-99.202-4.7852-53.881-8.9186-98.319-9.1853-98.75-0.62007-1.0033-248.35-1.0377-248.41-0.034-0.17832 3.3982 34.364 388.09 34.948 389.21 0.49438 0.948 90.359 26.366 255.18 72.176 139.93 38.892 255.22 70.746 256.2 70.786 0.98475 0.041 116.41-31.686 256.5-70.504zm-420.59-1930.6c-1.7321-1.7321-1.7321-113.87 0-115.6 0.9149-0.9149 21.822-1.2 88-1.2h86.8v-20h-86.8c-66.178 0-87.085-0.2851-88-1.2-0.92019-0.92019-1.2-29.582-1.2-122.92 0-66.945 0.27314-122.43 0.60699-123.3 0.54979-1.4327 14.87-1.5818 151.98-1.5818h151.37l0.5458 2.25c0.3002 1.2375 0.4213 26.1 0.2691 55.25l-0.2768 53-175.5 0.51092v19.989h86.8c66.178 0 87.085 0.2851 88 1.2 1.743 1.743 1.743 251.86 0 253.6-1.7444 1.7444-300.86 1.7444-302.6 0zm364.04 0.3706c-0.9922-0.62989-1.2036-13.048-1-58.735l0.2582-57.936 175.5-0.51092v-19.978l-175.5-0.51092-0.5078-248.5h151.9c137.59 0 151.95 0.14901 152.5 1.5818 0.3339 0.86998 0.607 25.34 0.607 54.378 0 43.021-0.2492 53.003-1.3458 53.913-0.963 0.79923-26.063 1.1896-88.25 1.3724l-86.904 0.25555v19l87.287 0.5c76.132 0.4361 87.408 0.69169 88.235 2 0.5841 0.92414 0.954 49.365 0.9634 126.18 0.014 112.02-0.1442 124.84-1.5561 126.25-1.4147 1.4147-16.499 1.5699-151.25 1.5561-82.323-8e-3 -150.24-0.37476-150.94-0.81409zm-728.04-6.3674c-0.92907-0.92907-1.2032-43.973-1.2032-188.92 0-103.25 0.27314-188.43 0.60699-189.3 0.54981-1.4328 14.916-1.5818 152.5-1.5818h151.89v63.393c0 56.884-0.16242 63.455-1.5818 64-0.86998 0.33385-40.47 0.60699-88 0.60699h-86.418v124l85.75 0.0137c47.162 8e-3 86.766 0.28587 88.007 0.61856l2.2574 0.6049-0.25736 63.631-0.25736 63.631-151.05 0.25321c-116.65 0.19556-151.32-0.0208-152.25-0.95z" fill="#bababa"/>
 <path d="m994.31 2820c-1.2058-0.5065-184.13-51.409-406.5-113.12-222.37-61.707-404.64-112.49-405.05-112.85s-40.79-449.96-89.737-999.11c-48.947-549.15-89.895-1007.9-90.994-1019.4-1.0993-11.512-1.8927-20.962-1.763-21 0.12968-0.03801 449.72 0.04384 999.09 0.18189l998.85 0.25099-0.7223 8.249c-17.92 204.68-181.36 2030-181.81 2030.4-0.6246 0.6247-811.56 225.85-816.68 226.82-1.375 0.2606-3.4866 0.059-4.6924-0.4471zm260.53-502.59c140.06-38.811 255.18-71.098 255.82-71.75 0.7324-0.7532 12.867-132.42 33.288-361.19 17.674-198 43.194-483.86 56.71-635.24 13.516-151.38 24.313-275.92 23.994-276.75-0.5184-1.3511-68.166-1.5133-625.36-1.4997-343.63 8e-3 -625.36 0.38359-626.07 0.83369-1.0348 0.65649 0.92273 25.232 9.8954 124.23 6.1519 67.879 11.625 123.98 12.162 124.67 0.77924 0.9969 97.54 1.25 477.85 1.25h476.88v3.4232c0 4.2428-21.903 250.81-22.317 251.23-0.1646 0.1645-204.93 0.61-455.03 0.9898-250.1 0.3799-454.93 1.0062-455.17 1.3917-0.47475 0.7682 21.288 245.69 22.011 247.72 0.356 0.9974 87.863 1.25 433.01 1.25 345.14 0 432.66 0.2526 433.03 1.25 0.7205 1.9354-28.185 321.81-29.164 322.73-1.2477 1.1681-275.52 75.02-278.61 75.02-4.0884 0-275.89-73.696-277.25-75.174-0.80729-0.8759-4.1675-34.558-9.8997-99.233-4.7727-53.849-8.9121-98.286-9.1987-98.75-0.28656-0.4636-56.534-0.843-124.99-0.843-110.92 0-124.54 0.167-125.06 1.5332-0.54332 1.4158 33.075 384.22 34.178 389.18 0.34795 1.5645 1.729 2.5833 4.7142 3.4777 18.54 5.5548 505.79 140.62 507.6 140.7 1.2851 0.06 116.94-31.645 257-70.455zm-420.38-1932.7c-0.26373-0.68928-0.36267-26.678-0.21986-57.753l0.25966-56.5 175-1v-21l-175-1-0.50784-247.5h303.01v110l-86.75 0.0153c-47.712 8e-3 -87.33 0.38311-88.038 0.83265-0.94309 0.59835-1.211 3.4744-1 10.735l0.28823 9.9174 175 1v253l-150.78 0.25324c-120.1 0.2017-150.88-2e-3 -151.26-1zm363.74 0.05c-0.9091-0.90912-1.1995-14.781-1.1879-56.753 0.01-30.552 0.371-56.11 0.8056-56.794 0.6185-0.9739 19.803-1.3 88.235-1.5l87.444-0.25555v-21l-87.444-0.25553c-68.432-0.19997-87.616-0.5261-88.235-1.5-0.9147-1.4404-1.1253-242.79-0.2139-245.16 0.5498-1.4327 14.873-1.5818 152.01-1.5818h151.4l-0.2586 54.75-0.2585 54.75-175 1-0.5676 21.489 175.57 0.51094v253l-150.55 0.25322c-116.26 0.19556-150.82-0.0208-151.75-0.95zm-727.54-5.4699c-0.36667-0.36666-0.66667-85.867-0.66667-190v-189.33h151.39c137.13 0 151.45 0.14904 152 1.5818 0.33385 0.86998 0.60699 28.94 0.60699 62.378 0 49.724-0.24508 60.999-1.3458 61.913-0.96301 0.79923-26.063 1.1896-88.25 1.3724l-86.904 0.25555v125l87 0.24939c80.383 0.23042 87.095 0.37807 88.25 1.9411 0.96744 1.3093 1.25 15.306 1.25 61.919 0 33.125-0.27314 60.939-0.60699 61.809-0.54978 1.4327-14.813 1.5818-151.33 1.5818-82.899 0-151.03-0.3-151.39-0.66667z" fill="#a1a1a1"/>
 <path d="m994 2819.5c-1.925-0.7842-185.01-51.807-406.86-113.38-221.85-61.577-403.64-112.24-403.98-112.58-0.34065-0.3406-41.245-455.65-90.898-1011.8-49.653-556.15-90.481-1012.5-90.729-1014.2s-0.63811-5.1375-0.86822-7.75l-0.41839-4.75h1996.8v3.75c0 6.8495-181.16 2033.7-181.84 2034.4-0.3667 0.38-182.69 51.13-405.17 112.78-222.48 61.648-405.4 112.5-406.5 113-3.9276 1.7849-6.0491 1.8939-9.5 0.4881zm260.35-501.11c140.33-38.86 255.81-71.26 256.62-72 1.4931-1.3724 2.2269-9.4638 90.028-992.7 20.394-228.38 24.844-281.14 23.818-282.37-1.1276-1.3586-67.713-1.4412-626.79-0.77709-347.62 0.4129-625.77 1.1255-626.07 1.6039-0.58496 0.92156 21.465 245.94 22.338 248.22 0.43537 1.1346 77.843 1.4668 477.81 2.0505 262.51 0.3831 477.38 0.7948 477.48 0.9148 0.1436 0.1698-22.271 252.45-22.52 253.47-0.034 0.1369-204.7 0.3619-454.81 0.5l-454.75 0.2511-0.25583 4.5c-0.14071 2.475 4.6212 58.652 10.582 124.84 8.4562 93.893 11.149 120.53 12.256 121.23 0.83158 0.5263 179.96 0.9038 433.17 0.9128 344.71 0.012 431.76 0.2673 431.78 1.2653 0.1122 4.0756-28.471 320.39-29.008 321.01-0.3607 0.4207-63.175 17.643-139.59 38.272l-138.93 37.507-87.503-23.63c-167.79-45.313-189.01-51.084-189.47-51.547-0.25623-0.2562-4.4093-44.684-9.229-98.729-4.8197-54.044-9.0933-98.797-9.4968-99.45-1.1062-1.7901-247.69-2.2325-250.1-0.4487-1.5922 1.1788-0.55966 14.077 15.743 196.66 9.5959 107.47 17.807 195.75 18.247 196.19 0.67774 0.6665 510.22 142.64 512.65 142.84 0.46618 0.038 115.67-31.725 256-70.584zm-419.11-1933.2c-0.99203-0.6298-1.2037-12.848-1-57.735l0.25834-56.936 175-1v-21l-175-1-0.50784-247.5h303.02l-0.2586 54.75-0.2585 54.75-175 1-0.28378 10.745-0.28377 10.745 175.57 0.51094 0.2539 125.94c0.2017 100.09 0 126.1-1 126.73-1.642 1.0426-298.87 1.0398-300.51-3e-3zm363.22-0.42052c-0.2631-0.6875-0.3615-26.675-0.2187-57.75l0.2597-56.5 175-1v-21l-175-1-0.5078-247.5h303.01v53.418c0 29.38-0.2731 54.13-0.607 55-0.5471 1.4257-9.2298 1.5818-87.981 1.5818h-87.374l-0.5641 2.25c-0.3103 1.2375-0.4313 6.075-0.2691 10.75l0.2951 8.5 86.904 0.25555c62.187 0.18287 87.287 0.57322 88.25 1.3724 1.8744 1.5556 2.0182 249.8 0.1458 251.67-1.7903 1.7903-300.66 1.7407-301.34-0.05zm-727.85-6.3286c-0.33453-0.87176-0.60823-86.373-0.60823-190v-188.42h303.01l-0.25745 63.25-0.25746 63.25-175 1-0.25747 62.631-0.25747 62.631 2.2575 0.60493c1.2416 0.33271 40.848 0.61108 88.015 0.61859l85.758 0.01365-0.25752 62.75-0.25751 62.75-150.64 0.25323c-136.72 0.22983-150.7 0.10675-151.25-1.3318z" fill="#8d8d8d"/>
 <path d="m994.34 2819.2c0.25163-0.4125-181.86-51.33-404.69-113.15-222.83-61.82-405.45-112.67-405.82-113-0.37186-0.3299-41.318-456.52-90.992-1013.8-49.674-557.24-90.617-1013-90.985-1012.7s-0.8219-2.1756-1.0084-5.3403l-0.33902-5.754 997.92 0.2515c548.86 0.13832 998.04 0.37351 998.19 0.52264 0.4751 0.47517-181.42 2035.9-181.99 2036.4-0.2998 0.2997-183.15 51.165-406.33 113.03-223.18 61.869-405.94 112.89-406.12 113.37-0.1834 0.4858-2.1224 0.8833-4.309 0.8833-2.1866 0-3.7698-0.3375-3.5182-0.75zm261.67-500.78c139.97-38.793 255.05-71.096 255.73-71.784 0.8662-0.8663 11.576-116.82 34.796-376.72 18.45-206.51 44.02-492.69 56.824-635.97s23.082-261.29 22.84-262.25c-0.4179-1.6643-31.126-1.75-627.35-1.75-588.86 0-626.95 0.10309-627.57 1.6982-0.93769 2.4436 21.573 248.43 22.878 250 0.88558 1.0671 87.37 1.3028 477.96 1.3028 340.04 0 476.88 0.3091 476.88 1.0772 0 0.5925-4.95 56.705-11 124.69-6.05 67.99-11 124.43-11 125.42 0 1.7377-17.005 1.8059-454.25 1.8206-280.03 0.01-454.82 0.3739-455.73 0.9503-1.2868 0.8137-0.031 17.09 9.6802 125.47 6.1374 68.493 11.396 124.92 11.685 125.38 0.2895 0.4684 195.25 1.1597 433.26 1.5361 238 0.3765 432.8 0.7886 432.89 0.9158 0.4943 0.7303-28.68 320.27-29.289 320.79-0.4062 0.352-62.996 17.423-139.09 37.935l-138.35 37.295-137.6-37.15c-75.682-20.432-138.02-37.569-138.53-38.082s-4.8697-45.021-9.6826-98.908c-4.8129-53.887-9.0535-98.466-9.4235-99.064-1.0483-1.6961-252.17-1.528-252.82 0.1693-0.69912 1.8218 34.069 390.96 35.086 392.71 0.99575 1.7059 507.65 142.84 513.2 142.96 1.9333 0.041 118.03-31.666 258-70.459zm-421.41-1935c-0.33385-0.86998-0.60699-26.24-0.60699-56.378 0-44.696 0.24804-55.002 1.3458-55.913 0.96301-0.79923 26.063-1.1896 88.25-1.3724l86.904-0.25555 0.289-9.9849c0.2468-8.5244 0.036-10.17-1.4411-11.25-1.3635-0.99701-19.999-1.2651-87.932-1.2651-77.682 0-86.262-0.15633-86.809-1.5818-0.33385-0.86998-0.60699-56.445-0.60699-123.5v-121.92l302.5-5.7382e-4 -0.2586 53.75c-0.1422 29.563-0.4647 54.31-0.7165 54.995-0.3595 0.97698-19.221 1.2994-87.741 1.5l-87.284 0.2555-0.28745 9.8524c-0.18688 6.4056 0.11834 10.341 0.87245 11.25 0.97695 1.1772 14.862 1.3976 88.037 1.3976h86.878v252h-150.39c-136.22 0-150.45-0.14911-151-1.5818zm364.06 0.91512c-0.3667-0.36666-0.6667-25.969-0.6667-56.893 0-50.349 0.1654-56.29 1.5818-56.833 0.87-0.33385 40.47-0.60699 88-0.60699h86.418v-11c0-6.05-0.1125-11.106-0.25-11.236-0.1375-0.12995-39.625-0.46745-87.75-0.75l-87.5-0.51374-0.2539-123.25-0.254-123.25h302.02l-0.2586 54.75-0.2585 54.75-175 1-0.2868 10.418c-0.211 7.6614 0.054 10.634 1 11.235 0.7077 0.44906 40.324 0.82337 88.037 0.83179l86.75 0.01531v252h-150.33c-82.683 0-150.63-0.3-151-0.66667zm-727.2-5.5833c-0.25829-0.6875-0.58166-86.188-0.71861-190l-0.249-188.75 302.52 5.7992e-5 -0.25752 62.75-0.25751 62.75-175 1v127l175 1 0.2577 61.936c0.2034 48.887-7e-3 62.104-1 62.735-0.69174 0.43916-68.434 0.80536-150.54 0.81378-118.52 0.0122-149.38-0.24228-149.75-1.2347z" fill="#7e7e7e"/>
 <path d="m994.66 2819.2c0.63813-0.406-181.16-51.321-404-113.14-222.84-61.824-405.65-112.9-406.25-113.5-0.65973-0.6574-36.96-403.69-91.5-1015.9-49.724-558.14-90.699-1013.8-91.057-1012.5-0.41738 1.4773-0.68603 0.33172-0.75-3.1982l-0.099681-5.5 1995 0.502v3.1844c0 1.7514-40.745 459.74-90.544 1017.7-67.448 755.77-90.882 1014.8-91.87 1015.6-0.7292 0.55-184.03 51.625-407.34 113.5-223.31 61.875-405.5 112.83-404.88 113.23 0.6213 0.4041-0.8954 0.7347-3.3704 0.7347s-3.9779-0.3322-3.3398-0.7383zm336.34-263.69c180.12-49.92 328-91.276 328.61-91.902 1.1731-1.2073 156.72-1740.3 155.79-1741.8-0.285-0.46106-183.59-0.8383-407.34-0.8383-339.96 0-407 0.22148-407.94 1.3477-0.80817 0.9738-1.1889 35.444-1.3724 124.25l-0.25397 122.9-313.68 0.25157c-297.72 0.23878-313.69 0.34052-314.02 2-0.40083 2.0545 21.842 247.89 22.61 249.89 0.43731 1.1397 49.206 1.399 302.8 1.6101l302.28 0.2516 0.25385 126.25 0.25384 126.25-582.51 0.5034-0.2596 5c-0.32809 6.3194 21.215 246.29 22.199 247.27 0.40007 0.4001 126.69 0.8423 280.64 0.9827l279.92 0.2552v197.44c0 108.59-0.37518 197.67-0.83373 197.95-0.89942 0.5559-275.18-73.174-276.41-74.303-0.40868-0.3742-4.7156-45.093-9.5709-99.375s-9.1709-99.038-9.5903-99.457c-1.2645-1.2645-251.31-0.9453-252.58 0.3224-1.5497 1.5497 33.323 392.18 35.176 394.03 0.92541 0.9227 459.9 129.12 509.56 142.33l4.25 1.1303v126.88c0 69.784 0.28706 127.63 0.63791 128.54 0.35084 0.9143 1.3634 1.4692 2.25 1.2332 0.8867-0.236 148.99-41.273 329.11-91.192zm-496.39-2172.1c-0.33385-0.86998-0.60699-26.24-0.60699-56.378 0-44.696 0.24804-55.002 1.3458-55.913 0.96301-0.79923 26.063-1.1896 88.25-1.3724l86.904-0.25555 0.289-9.9849c0.2468-8.5244 0.036-10.17-1.4411-11.25-1.3635-0.99701-19.999-1.2651-87.932-1.2651-77.682 0-86.262-0.15633-86.809-1.5818-0.33385-0.86998-0.60699-56.445-0.60699-123.5v-121.92l302.5-5.7382e-4 -0.2586 53.75c-0.1422 29.563-0.4647 54.31-0.7165 54.995-0.3595 0.97698-19.221 1.2994-87.741 1.5l-87.284 0.2555-0.28745 9.8524c-0.18688 6.4056 0.11834 10.341 0.87245 11.25 0.97695 1.1772 14.862 1.3976 88.037 1.3976h86.878v252h-150.39c-136.22 0-150.45-0.14911-151-1.5818zm364.06 0.91512c-0.3667-0.36666-0.6667-25.969-0.6667-56.893 0-50.349 0.1654-56.29 1.5818-56.833 0.87-0.33385 40.47-0.60699 88-0.60699h86.418v-11c0-6.05-0.1125-11.106-0.25-11.236-0.1375-0.12995-39.625-0.46745-87.75-0.75l-87.5-0.51374-0.2539-123.25-0.254-123.25h302.02l-0.2586 54.75-0.2585 54.75-175 1-0.2868 10.418c-0.211 7.6614 0.054 10.634 1 11.235 0.7077 0.44906 40.324 0.82337 88.037 0.83179l86.75 0.01531v252h-150.33c-82.683 0-150.63-0.3-151-0.66667zm-727.2-5.5833c-0.25829-0.6875-0.58166-86.188-0.71861-190l-0.249-188.75 302.52 5.7992e-5 -0.25752 62.75-0.25751 62.75-175 1v127l175 1 0.2577 61.936c0.2034 48.887-7e-3 62.104-1 62.735-0.69174 0.43916-68.434 0.80536-150.54 0.81378-118.52 0.0122-149.38-0.24228-149.75-1.2347z" fill="#717171"/>
 <path d="m834.61 383.42c-0.33385-0.86998-0.60699-26.24-0.60699-56.378 0-44.696 0.24804-55.002 1.3458-55.913 0.96301-0.79923 26.063-1.1896 88.25-1.3724l86.904-0.25555 0.289-9.9849c0.2468-8.5244 0.036-10.17-1.4411-11.25-1.3635-0.99701-19.999-1.2651-87.932-1.2651-77.682 0-86.262-0.15633-86.809-1.5818-0.33385-0.86998-0.60699-56.445-0.60699-123.5v-121.92l302.5-5.7382e-4 -0.2586 53.75c-0.1422 29.563-0.4647 54.31-0.7165 54.995-0.3595 0.97698-19.221 1.2994-87.741 1.5l-87.284 0.2555-0.28745 9.8524c-0.18688 6.4056 0.11834 10.341 0.87245 11.25 0.97695 1.1772 14.862 1.3976 88.037 1.3976h86.878v252h-150.39c-136.22 0-150.45-0.14911-151-1.5818zm364.06 0.91512c-0.3667-0.36666-0.6667-25.969-0.6667-56.893 0-50.349 0.1654-56.29 1.5818-56.833 0.87-0.33385 40.47-0.60699 88-0.60699h86.418v-11c0-6.05-0.1125-11.106-0.25-11.236-0.1375-0.12995-39.625-0.46745-87.75-0.75l-87.5-0.51374-0.2539-123.25-0.254-123.25h302.02l-0.2586 54.75-0.2585 54.75-175 1-0.2868 10.418c-0.211 7.6614 0.054 10.634 1 11.235 0.7077 0.44906 40.324 0.82337 88.037 0.83179l86.75 0.01531v252h-150.33c-82.683 0-150.63-0.3-151-0.66667zm-727.2-5.5833c-0.25829-0.6875-0.58166-86.188-0.71861-190l-0.249-188.75 302.52 5.7992e-5 -0.25752 62.75-0.25751 62.75-175 1v127l175 1 0.2577 61.936c0.2034 48.887-7e-3 62.104-1 62.735-0.69174 0.43916-68.434 0.80536-150.54 0.81378-118.52 0.0122-149.38-0.24228-149.75-1.2347z" fill="#020202"/>
</svg>
