<?xml version="1.0" encoding="UTF-8"?>
<!-- Created with Inkscape (http://www.inkscape.org/) -->
<svg width="1200" height="1200" version="1.1" viewBox="0 0 1200 1200" xmlns="http://www.w3.org/2000/svg" xmlns:cc="http://creativecommons.org/ns#" xmlns:dc="http://purl.org/dc/elements/1.1/" xmlns:rdf="http://www.w3.org/1999/02/22-rdf-syntax-ns#" xmlns:xlink="http://www.w3.org/1999/xlink">
 <metadata>
  <rdf:RDF>
   <cc:Work rdf:about="">
    <dc:format>image/svg+xml</dc:format>
    <dc:type rdf:resource="http://purl.org/dc/dcmitype/StillImage"/>
    <dc:title/>
   </cc:Work>
  </rdf:RDF>
 </metadata>
 <image width="1200" height="1200" preserveAspectRatio="none" xlink:href="C:\Users\mikeg\Downloads\HTML5_logo_and_wordmark.svg.png"/>
 <path d="m0 600v-600h1200v1200h-1200z" fill="#fefefe"/>
 <path d="m594 1199.1c-1.375-0.4686-3.8163-0.8969-5.4251-0.9517-1.6088-0.055-78.05-20.897-169.87-46.316-142.57-39.469-167.07-46.513-167.79-48.25-1.6013-3.8547-77.863-866.89-76.723-868.26 1.5533-1.8716 850.06-1.8732 851.62-2e-3 0.7465 0.89941-10.104 126.39-37.374 432.25-21.134 237.04-38.434 431.88-38.445 432.98-0.0104 1.1-0.39563 2.5943-0.85618 3.3206-0.92984 1.4665-329.1 92.822-338.63 94.267-10.844 1.6442-13.968 1.8267-16.5 0.964zm115.33-215.48c58.204-16.163 105.99-29.554 106.2-29.757 0.79828-0.79827 29.244-322.36 28.579-323.07-0.3896-0.41471-55.359-0.63971-122.15-0.5l-121.45 0.25402-0.51816 102.5h64.427c35.435 0 65.139 0.27314 66.009 0.60699 1.0426 0.40007 1.581 1.8489 1.5793 4.25-6e-3 8.2066-11.964 135.51-12.809 136.35-0.50326 0.50326-27.414 8.0262-59.802 16.718l-58.887 15.803-0.25876 53.134c-0.2442 50.143-0.15977 53.133 1.5 53.112 0.96732-0.012 49.38-13.246 107.58-29.409zm145.2-466.82c0.4636-1.2442 9.4715-96.196 9.4715-99.839 0-1.8721-2.7084-1.9113-132-1.9113h-132v50.833c0 27.958 0.3 51.133 0.66667 51.5 0.36666 0.36667 57.531 0.66667 127.03 0.66667 100.18 0 126.46-0.25905 126.83-1.25zm-601.33-353.95c-0.91317-0.91317-1.2-20.171-1.2-80.571 0-67.455 0.21447-79.586 1.4286-80.8 2.1104-2.1104 53.032-2.1104 55.143 0 1.159 1.159 1.4286 5.9714 1.4286 25.5v24.071h46v-23.918c0-13.155 0.27314-24.63 0.60699-25.5 0.53273-1.3883 3.9059-1.5818 27.571-1.5818 22.036 0 27.226 0.26112 28.393 1.4286 1.214 1.214 1.4286 13.295 1.4286 80.429 0 70.485-0.16938 79.169-1.5714 80.571-1.3475 1.3475-5.2545 1.5714-27.418 1.5714-14.216 0-26.559-0.27314-27.429-0.60699-1.3871-0.53228-1.5818-3.8555-1.5818-27v-26.393h-44.905l-0.29735 26.038c-0.24932 21.832-0.53964 26.191-1.7974 26.985-2.3272 1.4693-54.316 1.2621-55.8-0.22233zm229.05 0.53772c-0.9781-0.39467-1.25-12.123-1.25-53.921v-53.417h-22.8c-16.4 0-23.137-0.33684-24-1.2-1.8998-1.8998-1.6876-51.455 0.22857-53.371 2.1428-2.1428 149-2.1428 151.14 0 1.1608 1.1608 1.4286 6.0469 1.4286 26.066 0 15.071-0.40196 25.388-1.0352 26.571-0.97733 1.8261-2.3188 1.9343-24 1.9343h-22.965v52.8c0 39.733-0.29697 53.097-1.2 54-0.8772 0.8772-8.3419 1.1788-27.75 1.121-14.602-0.0434-27.112-0.30592-27.8-0.58333zm124.95-0.53772c-0.91317-0.91317-1.2-20.171-1.2-80.571 0-67.455 0.21447-79.586 1.4286-80.8 1.1714-1.1714 6.5714-1.4286 30-1.4286 18.381 0 28.571 0.35667 28.571 1 0 0.55 0.5625 1.0138 1.25 1.0307 0.6875 0.016891 8 11.248 16.25 24.959s15.43 24.803 15.955 24.651c0.52542-0.15261 7.706-11.384 15.957-24.959 8.2509-13.575 15.583-24.682 16.295-24.682 0.71122 0 1.2931-0.45 1.2931-1 0-0.64333 10.19-1 28.571-1 23.429 0 28.829 0.25714 30 1.4286 1.214 1.214 1.4286 13.295 1.4286 80.429 0 70.485-0.16938 79.169-1.5714 80.571-1.3475 1.3475-5.2545 1.5714-27.418 1.5714-14.216 0-26.559-0.27314-27.429-0.60699-1.4023-0.53811-1.5818-4.7368-1.5818-37 0-20.016-0.3375-36.391-0.75-36.388-0.4125 0.0029-7.0106 9.7113-14.662 21.574-16.766 25.993-19.206 29.42-20.942 29.42-0.7379 0-8.9476-11.728-18.244-26.063l-16.902-26.063-0.26265 36.226c-0.17912 24.706-0.61556 36.651-1.3724 37.563-1.5239 1.8362-52.837 1.965-54.665 0.13723zm209 0c-0.91317-0.91317-1.2-20.171-1.2-80.571 0-67.455 0.21447-79.586 1.4286-80.8 1.1675-1.1675 6.3572-1.4286 28.393-1.4286 23.666 0 27.039 0.19352 27.571 1.5818 0.33385 0.86998 0.60699 24.72 0.60699 53v51.418h36.929c32.238 0 37.128 0.19959 38.5 1.5714 2.3582 2.3582 2.3582 52.499 0 54.857-1.3962 1.3962-8.7892 1.5714-66.3 1.5714-49.011 0-65.02-0.29139-65.929-1.2z" fill="#e9e9e9"/>
 <path d="m584.5 1196.5c-39.118-10.126-331.05-91.646-332.07-92.727-1.7204-1.8227-78.608-865.81-77.203-867.53 0.81488-0.99643 86.985-1.25 424.78-1.25 337.79 0 423.96 0.25357 424.78 1.25 1.0521 1.2884-74.89 860.7-76.495 865.67-0.73484 2.2754-10.469 5.1043-164.28 47.742-159.19 44.13-182.31 50.406-185.14 50.277-0.7502-0.034-7.214-1.5768-14.364-3.4277zm124.81-211.84c58.198-16.169 106.22-29.805 106.72-30.301 1.091-1.091 30.124-323.31 29.258-324.71-0.39866-0.64506-66.944-0.7471-192.8-0.29566-155.24 0.55681-192.4 0.44412-193.25-0.58597-0.93388-1.1256-10.266-98.213-10.239-106.53l0.01043-3.25h203.03c161.51 0 203.13-0.25562 203.49-1.25 0.50974-1.3783 9.4749-97.146 9.4749-101.21v-2.5376h-264.94c-145.72 0-265.17 0.36388-265.44 0.80862-0.66801 1.0809 27.901 316.6 28.798 318.06 0.51892 0.83963 48.094 1.1388 182.89 1.1501 108.53 9e-3 182.78 0.38554 183.64 0.93102 1.2479 0.78947 0.65693 9.8516-4.2865 65.735-6.58 74.384-6.3105 72.062-8.501 73.23-0.91295 0.48692-27.839 7.9138-59.836 16.504l-58.176 15.619-58.324-15.6c-32.078-8.5798-58.936-16.191-59.685-16.914-0.97469-0.94128-2.3328-12.492-4.7813-40.668-1.881-21.644-3.6394-40.365-3.9077-41.603l-0.48776-2.25h-51.422c-32.956 0-51.642 0.35654-52.036 0.99287-0.65645 1.0622 13.608 162.59 14.478 163.95 0.9145 1.4254 215.4 61 218.02 60.555 1.375-0.2342 50.116-13.655 108.31-29.825zm-455.11-822.87c-0.91301-0.91301-1.2-20.026-1.2-79.918 0-43.295 0.27314-79.43 0.60699-80.3 0.53259-1.3879 3.8902-1.5818 27.393-1.5818s26.86 0.19388 27.393 1.5818c0.33385 0.86998 0.60699 12.578 0.60699 26.018v24.436l47.5-0.5362 0.53376-51.5h27.376c24.041 0 27.45 0.19271 27.983 1.5818 0.33385 0.86998 0.60699 36.838 0.60699 79.929 0 69.891-0.1696 78.516-1.5714 79.918-1.3462 1.3462-5.1799 1.5692-26.75 1.5561-13.848-8e-3 -25.733-0.36767-26.411-0.79833-0.91352-0.58027-1.3019-7.5027-1.5-26.735l-0.26729-25.952h-47l-0.26729 25.952c-0.19808 19.232-0.58648 26.154-1.5 26.735-2.1271 1.3511-52.156 0.99005-53.533-0.38636zm228.93-0.14162c-0.7792-0.93887-1.1912-17.074-1.3724-53.75l-0.259-52.408-22.421-0.26959c-14.485-0.17417-22.891-0.65994-23.75-1.3724-1.0398-0.86293-1.3289-6.4972-1.3289-25.899 0-13.638 0.27314-25.508 0.60699-26.378 0.54601-1.4229 8.1204-1.5818 75.393-1.5818s74.847 0.15892 75.393 1.5818c1.0689 2.7856 0.68114 49.411-0.42819 51.484-0.97733 1.8261-2.3188 1.9343-24 1.9343h-22.965v52.066c0 33.978-0.35963 52.738-1.0352 54-0.98246 1.8357-2.3514 1.9343-26.878 1.9343-20.395 0-26.077-0.2828-26.956-1.3416zm125.07 0.14162c-0.91301-0.91301-1.2-20.026-1.2-79.918 0-43.295 0.27314-79.43 0.60699-80.3 0.53354-1.3904 4.0028-1.5818 28.671-1.5818 23.605 0 28.329 0.23954 29.73 1.5075 0.91619 0.82914 8.6016 12.97 17.079 26.979 8.4771 14.009 15.851 25.335 16.386 25.168 0.53538-0.16705 7.8058-11.487 16.156-25.156 8.3507-13.669 15.774-25.673 16.497-26.676 1.2195-1.6919 3.3894-1.8235 30.074-1.8235h28.76l0.55052 2.25c0.30279 1.2375 0.42386 37.479 0.26905 80.537-0.24554 68.293-0.47295 78.408-1.7815 79.235-1.6304 1.0304-49.811 1.372-52.418 0.37164-1.4034-0.53852-1.5818-4.825-1.5818-38 0-21.678-0.3808-37.393-0.90607-37.393-0.49833 0-8.4858 11.697-17.75 25.994-10.24 15.803-17.461 25.996-18.418 26-0.96261 0.00354-8.1209-10.095-18.426-25.994-9.2684-14.3-17.223-26-17.676-26-0.45329 0-0.82416 16.56-0.82416 36.8 0 27.289-0.31014 37.11-1.2 38-1.7073 1.7073-50.893 1.7073-52.6 0zm209 0c-0.91301-0.91301-1.2-20.026-1.2-79.918 0-43.295 0.27314-79.43 0.60699-80.3 0.53259-1.3879 3.8902-1.5818 27.393-1.5818s26.86 0.19388 27.393 1.5818c0.33385 0.86998 0.60699 24.945 0.60699 53.5v51.918h36.929c32.238 0 37.128 0.19959 38.5 1.5714 2.356 2.356 2.356 50.501 0 52.857-1.3957 1.3957-8.6983 1.5714-65.3 1.5714-48.233 0-64.02-0.29177-64.929-1.2z" fill="#bcbcbc"/>
 <path d="m593.5 1198.3c-2.75-0.8475-80.337-22.401-172.42-47.896s-167.74-46.708-168.14-47.139c-0.84911-0.9229-77.952-865.43-77.283-866.53 0.59421-0.98074 848.08-0.98074 848.67 0 0.9216 1.5231-76.514 864.74-77.68 865.95-0.63542 0.6578-76.08 21.944-167.66 47.302s-169.36 46.982-172.86 48.054c-7.3596 2.2558-6.2688 2.2327-12.645 0.2677zm114.75-212.33c59.487-16.503 108.49-30.341 108.9-30.751s7.3034-73.837 15.319-163.17c11.634-129.67 14.316-162.61 13.299-163.33-0.75531-0.53582-79.049-0.6597-192.31-0.30426-153.6 0.48205-191.35 0.35076-192.65-0.67007-1.3352-1.0473-2.4244-10.198-6.2217-52.27-2.5317-28.05-4.6015-52.012-4.5994-53.25l0.00374-2.25h203.03c161.52 0 203.12-0.25558 203.48-1.25 0.5771-1.6074 9.4884-97.657 9.4884-102.27v-3.4797h-266.03c-215.73 0-266.12 0.24289-266.52 1.2847-0.658 1.7147 27.977 317.97 28.93 319.51 0.57533 0.93092 42.187 1.2035 183.72 1.2035 159.68 0 183.04 0.18625 183.53 1.4634 0.63459 1.6537-11.224 135.47-12.081 136.33-0.30409 0.3041-26.988 7.652-59.298 16.329l-58.745 15.776-58.5-15.598c-32.175-8.5787-58.854-15.906-59.286-16.283-0.43236-0.37714-2.4046-19.097-4.3827-41.6-1.9781-22.503-4.042-41.476-4.5864-42.164-0.76903-0.97123-12.566-1.25-52.899-1.25-45.574 0-51.98 0.18592-52.494 1.5235-0.93624 2.4398 13.737 163.81 15.019 165.18 0.95999 1.0211 212.74 60.906 216.43 61.197 0.71324 0.056 49.968-13.4 109.46-29.903zm-453.59-824.66c-0.36667-0.36666-0.66667-36.817-0.66667-81v-80.333h53.967l0.26661 26.25 0.2666 26.25 48.5 0.53556v-24.936c0-13.715 0.27314-25.648 0.60699-26.518 0.53267-1.3881 3.8996-1.5818 27.5-1.5818h26.893v79.418c0 43.68-0.27314 80.13-0.60699 81-0.53184 1.386-3.8084 1.5818-26.465 1.5818-24.541 0-25.911-0.0985-26.893-1.9343-0.6346-1.1858-1.0352-11.634-1.0352-27v-25.066h-48v25.8c0 18.733-0.32868 26.129-1.2 27-1.3007 1.3007-51.858 1.8082-53.133 0.53333zm229.02 0.0163c-0.3756-0.3756-0.6898-24.12-0.69822-52.766-8e-3 -28.646-0.36712-52.637-0.7971-53.314-0.57329-0.9025-6.9029-1.3025-23.735-1.5l-22.953-0.26934-0.26633-26.75-0.26634-26.75h150.03l-0.0153 25.75c-8e-3 14.162-0.36712 26.304-0.7971 26.981-0.57329 0.9025-6.9029 1.3025-23.735 1.5l-22.953 0.26929-1 107-26.067 0.26625c-14.337 0.14643-26.374-0.0411-26.75-0.41667zm125 2.6e-4c-0.37575-0.37579-0.68318-36.84-0.68318-81.032v-80.349l57.205 0.53067 16.424 27c9.0332 14.85 16.975 27.115 17.647 27.256 0.67291 0.1408 8.6627-12.009 17.755-27l16.532-27.256 57.437-0.53067v79.434c0 43.688-0.27314 80.145-0.60699 81.015-0.53184 1.386-3.8084 1.5818-26.465 1.5818-24.541 0-25.911-0.0985-26.893-1.9343-0.65944-1.2322-1.0352-15.207-1.0352-38.5 0-20.111-0.3375-36.554-0.75-36.54-0.4125 0.01441-8.4036 11.821-17.758 26.238-9.3544 14.416-17.679 26.326-18.5 26.466-0.97141 0.16567-7.4286-8.9012-18.508-25.988-9.3588-14.433-17.459-26.242-18-26.242-0.61933 0-1.1693 14.083-1.484 38l-0.5 38-25.567 0.26651c-14.062 0.14658-25.874-0.0409-26.25-0.41667zm208.98-0.0165c-0.36667-0.36672-0.66667-36.817-0.66667-81v-80.333h53.983l0.25868 53.75 0.25869 53.75 37.449 0.26237c28.432 0.1992 37.638 0.56035 38.235 1.5 0.91604 1.4423 1.1102 48.809 0.20969 51.156-0.54477 1.4197-7.1898 1.5818-64.833 1.5818-35.324 0-64.526-0.3-64.893-0.66667z" fill="#9f9f9f"/>
 <path d="m595.31 1198.5c-1.7525-0.7577-79.152-22.39-172-48.073s-169.18-47.029-169.63-47.437c-0.6107-0.558-77.682-858.47-77.687-864.77-8.3e-4 -0.99804 85.465-1.25 424-1.25 338.53 0 424 0.25196 424 1.25-0.01 3.4672-76.975 864.06-77.308 864.39-0.21457 0.2146-76.845 21.549-170.29 47.409-93.445 25.861-170.8 47.425-171.9 47.92-3.9582 1.783-6.0522 1.9093-9.1863 0.5543zm114.07-212.13c90.827-25.172 108.02-30.216 108.73-31.9 1.0323-2.4584 29.801-323.51 29.145-325.25-0.37325-0.99406-39.971-1.25-193.39-1.25-171.26 0-192.99-0.16981-193.5-1.5122-0.79158-2.0628-10.022-103.99-9.5463-105.42 0.28294-0.84882 51.26-0.96071 200.57-0.44024 110.1 0.38381 201.4 0.39272 202.89 0.0198 1.6684-0.41875 2.8936-1.5327 3.2037-2.9128 1.1251-5.0074 9.6621-102.94 9.101-104.41-0.5519-1.4382-24.634-1.5155-266.84-0.85604-146.43 0.39866-266.53 1.0179-266.88 1.3761-0.64351 0.64515 27.694 317.5 28.61 319.9 0.37594 0.9865 18.454 1.2501 85.758 1.2506 46.905 3.1e-4 129.49 0.29955 183.53 0.66498l98.25 0.66442 7e-3 3.085c9e-3 3.6857-10.94 128.18-11.532 131.13-0.36265 1.8057-7.3509 3.9075-59.394 17.864l-58.983 15.818-58.232-15.602c-32.028-8.5809-58.593-16.17-59.034-16.864-0.44082-0.69444-0.82406-2.6126-0.85164-4.2626-0.11487-6.8729-6.7793-77.365-7.4108-78.387-1.052-1.7021-106.47-1.5671-107.09 0.13717-0.82278 2.2697 14.262 164.9 15.401 166.03 1.2372 1.2372 217.07 61.766 218.62 61.31 0.55-0.1619 49.548-13.749 108.88-30.193zm-454.13-825.05c-0.98538-0.40441-1.25-17.537-1.25-80.93v-80.417h54v53.035l49.5-0.53494 0.2666-26.25 0.26661-26.25h53.967v79.309c0 61.869-0.27487 79.685-1.25 81.018-1.1317 1.5472-3.6633 1.6836-26.75 1.4411l-25.5-0.26786-1-53-24.25-0.26778c-13.338-0.14728-24.344-0.14728-24.458 0s-0.452 12.193-0.75 26.768l-0.54182 26.5-25.5 0.17967c-14.025 0.0988-26.062-0.0512-26.75-0.33333zm228.22-0.59634c-0.25791-0.6875-0.58129-24.875-0.71861-53.75l-0.24969-52.5-47-1-0.26633-26.75-0.26634-26.75h150.03v25.309c0 18.684-0.32721 25.749-1.25 26.99-1.0958 1.4738-4.026 1.7133-23.75 1.9411l-22.5 0.25994-0.259 52.408c-0.18125 36.676-0.59325 52.811-1.3724 53.75-1.5677 1.889-51.693 1.9766-52.4 0.0916zm125.75 0.0667c-0.9353-0.93528-1.2167-19.674-1.2167-81.017v-79.8h56.706l16.761 27.551c10.415 17.12 17.276 27.437 18.12 27.25 0.74732-0.16568 8.7496-12.451 17.783-27.301l16.424-27 57.205-0.53067v79.324c0 61.881-0.27487 79.7-1.25 81.033-1.1317 1.5472-3.6633 1.6836-26.75 1.4411l-25.5-0.26786-0.5-38.251c-0.31899-24.404-0.86201-38.285-1.5-38.346-0.55-0.05259-8.6864 11.76-18.081 26.251-9.3944 14.491-17.706 26.346-18.471 26.346s-9.1422-11.925-18.617-26.5-17.588-26.388-18.029-26.251-1.027 17.462-1.302 38.5l-0.5 38.251-25.033 0.26672c-18.631 0.1985-25.344-0.0444-26.25-0.95zm208.98-0.0167c-0.91328-0.91328-1.2-20.267-1.2-81v-79.8h53.983l0.25868 53.75 0.25869 53.75 36.913 0.26249c25.213 0.17929 37.336 0.61429 38.25 1.3724 1.834 1.5221 1.9626 49.84 0.13742 51.665-1.7342 1.7342-126.87 1.7342-128.6 0z" fill="#8d8d8d"/>
 <path d="m597.24 1199.2c-1.2457-0.2014-2.0718-0.6785-1.8358-1.0604 0.23599-0.3818-76.076-21.837-169.58-47.678-93.506-25.841-170.57-47.434-171.26-47.984-0.87781-0.7037-12.565-128.39-39.448-431-21.011-236.5-38.181-431.01-38.156-432.25l0.04533-2.25h846v3.25c0 4.0052-75.896 857.47-76.501 860.25-0.38065 1.751-21.763 7.9021-171.72 49.398-94.205 26.069-171.51 47.702-171.78 48.073-0.81181 1.0961-3.337 1.6447-5.7648 1.2523zm112.18-212.19c59.351-16.472 108.32-30.356 108.81-30.853 0.98151-0.98151 29.991-320.74 29.546-325.68l-0.27086-3-386.9-1-4.7014-52c-2.5858-28.6-4.4932-52.338-4.2388-52.75s91.535-0.75 202.84-0.75c131.12 0 202.6-0.34514 202.99-0.98025 0.8569-1.3865 10.373-105.22 9.7834-106.76-0.38936-1.0147-53.184-1.2643-267.41-1.2643-250.19 0-266.97 0.10644-267.58 1.6983-0.82283 2.1443 27.69 319.42 28.838 320.89 0.59955 0.76787 54.333 1.2827 184.04 1.7634 100.76 0.37339 183.32 0.80536 183.48 0.95993 0.65688 0.65687-11.854 134.21-12.617 134.68-0.46176 0.28432-26.782 7.4658-58.489 15.959l-57.649 15.442-8.6933-2.1691c-27.51-6.864-108.65-29.106-108.87-29.842-0.14103-0.47984-1.8544-19.097-3.8074-41.372s-3.7544-41.062-4.003-41.75c-0.35402-0.97896-12.145-1.25-54.376-1.25-42.22 0-54.027 0.27131-54.398 1.25-0.95099 2.5084 14.303 166.2 15.61 167.52 1.4037 1.4139 213.7 61.058 217.65 61.15 1.375 0.032 51.06-13.419 110.41-29.891zm-454.41-904.93c0-43.414-0.27314-79.647-0.60699-80.517-0.5442-1.4182 2.171-1.5819 26.25-1.5827l26.857-8.928e-4 -0.29873 24.976c-0.1999 16.713 0.063 25.651 0.79465 27.019 1.0611 1.9827 1.8077 2.0351 25.299 1.7753l24.205-0.26768 0.26633-26.75 0.26634-26.75h52.967v161.03l-52.5-0.53321-0.26729-25.952c-0.19808-19.232-0.58648-26.154-1.5-26.735-1.6089-1.022-45.856-1.022-47.465 0-0.91352 0.58027-1.3019 7.5027-1.5 26.735l-0.26729 25.952-52.5 0.53321zm228.67 78.235c-0.36667-0.36666-0.66667-24.394-0.66667-53.393 0-47.157-0.16708-52.79-1.5818-53.333-0.86998-0.33384-11.445-0.60699-23.5-0.60699h-21.918v-24.918c0-13.705-0.27314-25.63-0.60699-26.5-0.55015-1.4337 6.379-1.5818 74-1.5818h74.607v53h-22.066c-13.298 0-22.834 0.41132-24 1.0352-1.875 1.0035-1.9343 2.6587-1.9343 54v52.965h-25.833c-14.208 0-26.133-0.3-26.5-0.66667zm125.33-78.235c0-43.414-0.27314-79.647-0.60699-80.517-0.54474-1.4196 2.3156-1.5818 27.893-1.5818 23.961 0 28.589 0.23071 29.056 1.4485 1.5896 4.1425 33.019 54.551 34.013 54.551 1.0297 0 32.035-49.63 33.863-54.204 0.66673-1.6684 2.7112-1.7962 28.75-1.7962h28.032v161.03l-52.5-0.53321-0.26188-38.25c-0.20266-29.599-0.5419-38.249-1.5-38.246-0.68097 0.0022-8.918 11.814-18.305 26.249-9.3866 14.435-17.712 26.351-18.5 26.481-0.894 0.14732-7.8314-9.7254-18.433-26.233-9.35-14.558-17.557-26.476-18.238-26.485-0.95836-0.01265-1.2973 8.6264-1.5 38.234l-0.26188 38.25-51.5 0.53376zm209-0.01688c0-43.405-0.27314-79.63-0.60699-80.5-0.54429-1.4184 2.1921-1.5818 26.491-1.5818h27.098l0.51722 108.5 75.5 0.52405v51.976h-129v-78.918z" fill="#7e7e7e"/>
 <path d="m595.7 1198.2c0.66743-0.4243-74.767-21.79-170.19-48.204l-171.39-47.442-0.57366-4.5309c-0.52678-4.1605-76.56-857.58-76.556-859.28 0.00104-0.4125 190.35-0.75 423-0.75 337.74 0 423 0.25194 422.98 1.25-0.1321 7.7877-77.02 862.16-77.636 862.69-0.46333 0.3976-77.878 22.036-172.03 48.084s-170.97 47.725-170.69 48.17c0.2747 0.4444-1.4396 0.8012-3.8096 0.7928-2.37-0.01-3.7696-0.3583-3.1102-0.7774zm145.88-111.66c75.752-21.15 138.17-38.891 138.7-39.425 1.1347-1.1347 67.182-736.47 66.345-738.65-0.49465-1.289-22.006-1.4403-173.35-1.2188l-172.78 0.25283-0.25919 51.447c-0.19966 39.632-0.54413 51.628-1.5 52.235-0.68244 0.43341-60.93 0.79492-133.88 0.80334-105.18 0.0121-132.74 0.2741-133.12 1.2653-0.49253 1.288 27.942 319.26 28.75 321.5 0.35771 0.99038 24.949 1.25 118.4 1.25 64.872 0 118.66 0.27314 119.53 0.60699 1.4248 0.54674 1.5818 8.8349 1.5818 83.5 0 45.591-0.3375 82.892-0.75 82.892-2.1213-4e-3 -115.49-30.848-116.17-31.607-0.44211-0.49016-2.4035-19.212-4.3587-41.603-1.9552-22.392-3.8435-41.179-4.1964-41.75-1.0099-1.6341-108.44-1.4253-109.06 0.21195-0.73207 1.9327 14.309 166.92 15.309 167.92 0.48544 0.48544 47.648 13.923 104.81 29.86 57.157 15.938 106.29 29.663 109.17 30.5l5.25 1.5228v53.472c0 52.1 0.0494 53.472 1.9239 53.472 1.0581 0 63.903-17.305 139.65-38.455zm-280.63-460.29c-0.029-0.41627-2.1842-24.064-4.7892-52.551-2.605-28.487-4.5312-51.999-4.2805-52.25 0.81723-0.81723 145.59-0.44856 146.88 0.37405 0.99121 0.62926 1.204 11.849 1 52.735l-0.2591 51.935-69.25 0.25685c-38.088 0.14126-69.274-0.0837-69.303-0.5zm-205.95-544.16c0-43.414-0.27314-79.647-0.60699-80.517-0.5442-1.4182 2.171-1.5819 26.25-1.5827l26.857-8.928e-4 -0.29873 24.976c-0.1999 16.713 0.063 25.651 0.79465 27.019 1.0611 1.9827 1.8077 2.0351 25.299 1.7753l24.205-0.26768 0.26633-26.75 0.26634-26.75h52.967v161.03l-52.5-0.53321-0.26729-25.952c-0.19808-19.232-0.58648-26.154-1.5-26.735-1.6089-1.022-45.856-1.022-47.465 0-0.91352 0.58027-1.3019 7.5027-1.5 26.735l-0.26729 25.952-52.5 0.53321zm228.67 78.235c-0.36667-0.36666-0.66667-24.394-0.66667-53.393 0-47.157-0.16708-52.79-1.5818-53.333-0.86998-0.33384-11.445-0.60699-23.5-0.60699h-21.918v-24.918c0-13.705-0.27314-25.63-0.60699-26.5-0.55015-1.4337 6.379-1.5818 74-1.5818h74.607v53h-22.066c-13.298 0-22.834 0.41132-24 1.0352-1.875 1.0035-1.9343 2.6587-1.9343 54v52.965h-25.833c-14.208 0-26.133-0.3-26.5-0.66667zm125.33-78.235c0-43.414-0.27314-79.647-0.60699-80.517-0.54474-1.4196 2.3156-1.5818 27.893-1.5818 23.961 0 28.589 0.23071 29.056 1.4485 1.5896 4.1425 33.019 54.551 34.013 54.551 1.0297 0 32.035-49.63 33.863-54.204 0.66673-1.6684 2.7112-1.7962 28.75-1.7962h28.032v161.03l-52.5-0.53321-0.26188-38.25c-0.20266-29.599-0.5419-38.249-1.5-38.246-0.68097 0.0022-8.918 11.814-18.305 26.249-9.3866 14.435-17.712 26.351-18.5 26.481-0.894 0.14732-7.8314-9.7254-18.433-26.233-9.35-14.558-17.557-26.476-18.238-26.485-0.95836-0.01265-1.2973 8.6264-1.5 38.234l-0.26188 38.25-51.5 0.53376zm209-0.01688c0-43.405-0.27314-79.63-0.60699-80.5-0.54429-1.4184 2.1921-1.5818 26.491-1.5818h27.098l0.51722 108.5 75.5 0.52405v51.976h-129v-78.918z" fill="#717171"/>
 <path d="m255 82.098c0-43.414-0.27314-79.647-0.60699-80.517-0.5442-1.4182 2.171-1.5819 26.25-1.5827l26.857-8.928e-4 -0.29873 24.976c-0.1999 16.713 0.063 25.651 0.79465 27.019 1.0611 1.9827 1.8077 2.0351 25.299 1.7753l24.205-0.26768 0.26633-26.75 0.26634-26.75h52.967v161.03l-52.5-0.53321-0.26729-25.952c-0.19808-19.232-0.58648-26.154-1.5-26.735-1.6089-1.022-45.856-1.022-47.465 0-0.91352 0.58027-1.3019 7.5027-1.5 26.735l-0.26729 25.952-52.5 0.53321zm228.67 78.235c-0.36667-0.36666-0.66667-24.394-0.66667-53.393 0-47.157-0.16708-52.79-1.5818-53.333-0.86998-0.33384-11.445-0.60699-23.5-0.60699h-21.918v-24.918c0-13.705-0.27314-25.63-0.60699-26.5-0.55015-1.4337 6.379-1.5818 74-1.5818h74.607v53h-22.066c-13.298 0-22.834 0.41132-24 1.0352-1.875 1.0035-1.9343 2.6587-1.9343 54v52.965h-25.833c-14.208 0-26.133-0.3-26.5-0.66667zm125.33-78.235c0-43.414-0.27314-79.647-0.60699-80.517-0.54474-1.4196 2.3156-1.5818 27.893-1.5818 23.961 0 28.589 0.23071 29.056 1.4485 1.5896 4.1425 33.019 54.551 34.013 54.551 1.0297 0 32.035-49.63 33.863-54.204 0.66673-1.6684 2.7112-1.7962 28.75-1.7962h28.032v161.03l-52.5-0.53321-0.26188-38.25c-0.20266-29.599-0.5419-38.249-1.5-38.246-0.68097 0.0022-8.918 11.814-18.305 26.249-9.3866 14.435-17.712 26.351-18.5 26.481-0.894 0.14732-7.8314-9.7254-18.433-26.233-9.35-14.558-17.557-26.476-18.238-26.485-0.95836-0.01265-1.2973 8.6264-1.5 38.234l-0.26188 38.25-51.5 0.53376zm209-0.01688c0-43.405-0.27314-79.63-0.60699-80.5-0.54429-1.4184 2.1921-1.5818 26.491-1.5818h27.098l0.51722 108.5 75.5 0.52405v51.976h-129v-78.918z" fill="#050505"/>
</svg>
